<?xml version="1.0" standalone="no"?><!DOCTYPE svg PUBLIC "-//W3C//DTD SVG 1.1//EN" "http://www.w3.org/Graphics/SVG/1.1/DTD/svg11.dtd"><svg t="1633255556382" class="icon" viewBox="0 0 1024 1024" version="1.1" xmlns="http://www.w3.org/2000/svg" p-id="7378" xmlns:xlink="http://www.w3.org/1999/xlink" width="64" height="64"><defs><style type="text/css"></style></defs><path d="M512 85.290667c235.690667 0 426.752 191.061333 426.752 426.752 0 235.648-191.061333 426.709333-426.752 426.709333C276.309333 938.752 85.333333 747.690667 85.333333 512.042667 85.290667 276.352 276.309333 85.248 512 85.248z m0 64a362.752 362.752 0 1 0 0 725.461333A362.752 362.752 0 0 0 512 149.333333z m-0.170667 298.666666a32 32 0 0 1 31.744 27.648l0.298667 4.352 0.170667 234.752a32 32 0 0 1-63.744 4.352l-0.256-4.309333-0.170667-234.752a32 32 0 0 1 32-32z m0.213334-149.205333a42.624 42.624 0 1 1 0 85.205333 42.624 42.624 0 0 1 0-85.205333z" p-id="7379"></path></svg>