<?xml version="1.0" standalone="no"?><!DOCTYPE svg PUBLIC "-//W3C//DTD SVG 1.1//EN" "http://www.w3.org/Graphics/SVG/1.1/DTD/svg11.dtd"><svg t="1632162048162" class="icon" viewBox="0 0 1024 1024" version="1.1" xmlns="http://www.w3.org/2000/svg" p-id="4328" xmlns:xlink="http://www.w3.org/1999/xlink" width="64" height="64"><defs><style type="text/css"></style></defs><path d="M860.16 869.3248H163.84a84.5312 84.5312 0 0 1-84.48-84.4288V239.104A84.5312 84.5312 0 0 1 163.84 154.6752h300.5952a120.6272 120.6272 0 0 1 94.8736 46.592l46.8992 60.672a65.3824 65.3824 0 0 0 51.2 25.2416H860.16a84.5312 84.5312 0 0 1 84.48 84.4288v413.2864a84.5312 84.5312 0 0 1-84.48 84.4288zM163.84 200.7552a38.4 38.4 0 0 0-38.4 38.3488v545.792a38.4 38.4 0 0 0 38.4 38.3488h696.32a38.4 38.4 0 0 0 38.3488-38.3488V371.6096a38.4 38.4 0 0 0-38.3488-38.3488h-202.5472a111.7184 111.7184 0 0 1-87.8592-43.1616l-46.8992-60.672a74.2912 74.2912 0 0 0-58.4192-28.672z" fill="#4D4D4D" p-id="4329"></path><path d="M819.2 429.6192H114.432a23.04 23.04 0 1 1 0-46.08H819.2a23.04 23.04 0 0 1 0 46.08z" fill="#4D4D4D" p-id="4330"></path></svg>