<?xml version="1.0" standalone="no"?><!DOCTYPE svg PUBLIC "-//W3C//DTD SVG 1.1//EN" "http://www.w3.org/Graphics/SVG/1.1/DTD/svg11.dtd"><svg t="1632164058693" class="icon" viewBox="0 0 1024 1024" version="1.1" xmlns="http://www.w3.org/2000/svg" p-id="2415" xmlns:xlink="http://www.w3.org/1999/xlink" width="64" height="64"><defs><style type="text/css"></style></defs><path d="M384 938.666667H213.333333a128 128 0 0 1-128-128V213.333333a128 128 0 0 1 128-128h170.666667a42.666667 42.666667 0 0 1 0 85.333334H213.333333a42.666667 42.666667 0 0 0-42.666666 42.666666v597.333334a42.666667 42.666667 0 0 0 42.666666 42.666666h170.666667a42.666667 42.666667 0 0 1 0 85.333334zM682.666667 768a42.666667 42.666667 0 0 1-30.293334-12.373333 42.666667 42.666667 0 0 1 0-60.586667l183.466667-183.04-183.466667-183.04a42.666667 42.666667 0 0 1 60.586667-60.586667l213.333333 213.333334a42.666667 42.666667 0 0 1 0 60.586666l-213.333333 213.333334A42.666667 42.666667 0 0 1 682.666667 768z" p-id="2416" fill="#00a1d6"></path><path d="M896 554.666667H384a42.666667 42.666667 0 0 1 0-85.333334h512a42.666667 42.666667 0 0 1 0 85.333334z" p-id="2417" fill="#00a1d6"></path></svg>