<?xml version="1.0" standalone="no"?><!DOCTYPE svg PUBLIC "-//W3C//DTD SVG 1.1//EN" "http://www.w3.org/Graphics/SVG/1.1/DTD/svg11.dtd"><svg t="1632226205423" class="icon" viewBox="0 0 1024 1024" version="1.1" xmlns="http://www.w3.org/2000/svg" p-id="23523" xmlns:xlink="http://www.w3.org/1999/xlink" width="64" height="64"><defs><style type="text/css"></style></defs><path d="M833 927H161c-52.9 0-96-43.1-96-96V191c0-52.9 43.1-96 96-96h672c52.9 0 96 43.1 96 96v640c0 52.9-43.1 96-96 96zM161 159c-17.6 0-32 14.4-32 32v640c0 17.6 14.4 32 32 32h672c17.6 0 32-14.4 32-32V191c0-17.6-14.4-32-32-32H161z" fill="#00a1d6" p-id="23524"></path><path d="M685 455c-64 0-116-52-116-116s52-116 116-116 116 52 116 116-52 116-116 116z m0-168c-28.7 0-52 23.3-52 52s23.3 52 52 52 52-23.3 52-52-23.3-52-52-52zM581.5 799c-9.3 0-18.5-4-24.8-11.8L317.9 493.9 122.1 678.3c-12.9 12.1-33.1 11.5-45.2-1.3-12.1-12.9-11.5-33.1 1.4-45.2l220.8-208c6.5-6.1 15.2-9.2 24.1-8.6 8.9 0.6 17.1 4.8 22.7 11.7l260.5 320c11.2 13.7 9.1 33.9-4.6 45-6 4.7-13.2 7.1-20.3 7.1z" fill="#00a1d6" p-id="23525"></path><path d="M881 767c-9.1 0-18.1-3.8-24.4-11.3L702 573 550.5 710.7c-13.1 11.9-33.3 10.9-45.2-2.2-11.9-13.1-10.9-33.3 2.2-45.2l176-160c6.4-5.8 15-8.8 23.6-8.3 8.7 0.6 16.7 4.6 22.3 11.3l176 208c11.4 13.5 9.7 33.7-3.8 45.1-5.9 5.1-13.3 7.6-20.6 7.6z" fill="#00a1d6" p-id="23526"></path></svg>