<?xml version="1.0" standalone="no"?><!DOCTYPE svg PUBLIC "-//W3C//DTD SVG 1.1//EN" "http://www.w3.org/Graphics/SVG/1.1/DTD/svg11.dtd"><svg t="1632223964073" class="icon" viewBox="0 0 1024 1024" version="1.1" xmlns="http://www.w3.org/2000/svg" p-id="4413" xmlns:xlink="http://www.w3.org/1999/xlink" width="64" height="64"><defs><style type="text/css"></style></defs><path d="M382.32 405.358v384a20.626 20.626 0 0 1-21.577 21.284h-43.3a20.626 20.626 0 0 1-21.578-21.357v-384A20.626 20.626 0 0 1 317.443 384h43.154a20.626 20.626 0 0 1 21.577 21.358h0.073z m172.91 0v384a20.626 20.626 0 0 1-21.65 21.284h-43.155a20.626 20.626 0 0 1-21.577-21.357v-384A20.626 20.626 0 0 1 490.425 384h43.155a20.626 20.626 0 0 1 21.577 21.358z m172.91 0v384a20.626 20.626 0 0 1-21.65 21.284h-43.155a20.626 20.626 0 0 1-21.577-21.357l-0.073-384A20.626 20.626 0 0 1 663.262 384h43.227a20.626 20.626 0 0 1 21.578 21.358z m86.381 482.67V256H209.484v631.954a74.825 74.825 0 0 0 14.482 45.056c3.365 3.804 5.778 5.632 7.095 5.632h561.883c1.317 0 3.657-1.828 7.095-5.632a74.825 74.825 0 0 0 14.556-44.983zM360.743 170.641h302.519l-32.402-77.97a19.017 19.017 0 0 0-11.484-7.314H405.287a19.017 19.017 0 0 0-11.483 7.314l-33.06 77.97zM987.431 192v42.642A20.626 20.626 0 0 1 965.854 256h-64.878v631.954c0 36.937-10.532 68.755-31.744 95.744-21.211 26.844-46.592 40.302-76.288 40.302H231.061c-29.696 0-55.15-13.02-76.288-38.985-21.212-26.039-31.744-57.49-31.744-94.354V256H58.15a20.626 20.626 0 0 1-21.577-21.358V192a20.626 20.626 0 0 1 21.577-21.358h208.677L314.15 59.32c6.73-16.457 18.871-30.428 36.425-41.984C368.131 5.778 385.977 0 403.971 0h216.064c17.993 0 35.84 5.778 53.394 17.335 17.554 11.556 29.696 25.6 36.425 41.984l47.323 111.323h208.677A20.626 20.626 0 0 1 987.431 192z" p-id="4414"></path></svg>