<?xml version="1.0" standalone="no"?><!DOCTYPE svg PUBLIC "-//W3C//DTD SVG 1.1//EN" "http://www.w3.org/Graphics/SVG/1.1/DTD/svg11.dtd"><svg t="1632226384425" class="icon" viewBox="0 0 1024 1024" version="1.1" xmlns="http://www.w3.org/2000/svg" p-id="28374" xmlns:xlink="http://www.w3.org/1999/xlink" width="64" height="64"><defs><style type="text/css"></style></defs><path d="M262 202c-33.138 0-60 26.862-60 60v500c0 33.138 26.862 60 60 60h500c33.138 0 60-26.862 60-60V262c0-33.138-26.862-60-60-60H262z m0-90h500c82.842 0 150 67.158 150 150v500c0 82.842-67.158 150-150 150H262c-82.842 0-150-67.158-150-150V262c0-82.842 67.158-150 150-150z" p-id="28375" fill="#00a1d6"></path><path d="M423.296 357.774l223.236 120.104c23.528 12.658 32.34 41.994 19.682 65.52a48.376 48.376 0 0 1-22.314 20.998l-223.234 103.132c-24.254 11.206-53 0.628-64.206-23.628a48.376 48.376 0 0 1-4.46-20.288V400.376C352 373.66 373.66 352 400.376 352c8 0 15.876 1.984 22.92 5.774z" p-id="28376" fill="#00a1d6"></path></svg>